<?xml version="1.0" standalone="no"?>
<!DOCTYPE svg PUBLIC "-//W3C//DTD SVG 20010904//EN"
 "http://www.w3.org/TR/2001/REC-SVG-20010904/DTD/svg10.dtd">
<svg version="1.0" xmlns="http://www.w3.org/2000/svg"
 width="260.000000pt" height="260.000000pt" viewBox="0 0 260.000000 260.000000"
 preserveAspectRatio="xMidYMid meet">
<metadata>
Created by potrace 1.11, written by Peter Selinger 2001-2013
</metadata>
<g transform="translate(0.000000,260.000000) scale(0.100000,-0.100000)"
fill="#000000" stroke="none">
<path d="M1061 2424 c-111 -25 -225 -68 -321 -121 -131 -73 -300 -214 -320
-267 -6 -16 -13 -26 -17 -23 -3 4 -20 -12 -38 -35 -31 -38 -36 -70 -14 -84 5
-3 9 -10 9 -15 0 -6 -5 -7 -10 -4 -6 3 -10 1 -10 -6 0 -8 -6 -5 -13 5 -12 17
-16 14 -45 -30 -80 -125 -149 -362 -147 -509 l0 -50 60 -3 60 -3 3 63 c2 35 4
74 5 88 1 16 -3 24 -11 22 -8 -1 -11 2 -7 8 3 6 10 8 14 6 3 -3 7 3 8 12 1 27
69 206 104 274 53 105 107 179 198 268 127 126 240 197 410 256 52 18 98 39
102 45 6 10 13 10 32 2 14 -7 28 -9 31 -5 4 3 19 6 34 7 15 1 51 2 80 3 l52 2
0 61 0 60 -76 -2 c-41 -2 -119 -13 -173 -25z m-366 -244 c3 -5 1 -10 -4 -10
-6 0 -11 5 -11 10 0 6 2 10 4 10 3 0 8 -4 11 -10z m-334 -243 c-10 -9 -11 -8
-5 6 3 10 9 15 12 12 3 -3 0 -11 -7 -18z"/>
<path d="M1382 2391 l-1 -60 37 -6 c151 -24 215 -41 195 -53 -27 -18 -153
-261 -153 -298 0 -6 -82 -179 -122 -257 -26 -51 -28 -140 -4 -185 9 -18 22
-32 29 -29 6 2 20 -7 30 -20 10 -13 29 -23 42 -23 12 0 28 -7 35 -15 12 -15
23 -14 70 3 13 5 13 3 2 -11 -12 -14 -9 -18 20 -30 28 -12 73 -24 153 -44 11
-2 58 -7 106 -10 80 -5 87 -4 114 20 27 23 28 27 20 62 -6 21 -17 41 -25 45
-36 18 -161 50 -235 60 -147 20 -225 57 -225 107 0 25 29 83 41 83 4 0 50 -16
103 -35 239 -86 408 -102 448 -41 10 14 10 67 1 64 -5 -1 -22 12 -40 30 -25
25 -40 32 -71 32 -83 0 -307 50 -350 79 -11 7 -3 34 38 132 29 68 57 150 64
181 6 31 14 60 18 63 9 10 156 -67 225 -119 125 -92 225 -211 299 -356 21 -41
42 -76 46 -78 5 -2 8 -12 8 -22 0 -9 7 -34 15 -54 12 -28 21 -36 41 -36 16 0
24 -5 21 -12 -2 -7 -12 -12 -21 -12 -12 2 -16 -4 -14 -20 2 -14 9 -20 21 -18
20 3 23 -18 5 -37 -11 -11 -10 -13 5 -8 9 4 17 3 18 -1 0 -4 2 -17 3 -29 2
-14 -2 -19 -11 -16 -14 5 -17 -11 -14 -77 2 -58 6 -62 63 -58 48 3 52 5 55 31
3 18 0 26 -7 22 -5 -3 -10 -14 -11 -23 0 -14 -2 -13 -9 3 -15 34 -11 44 12 37
17 -4 20 -2 15 12 -4 10 -7 20 -7 22 0 3 -5 2 -11 -2 -8 -4 -8 0 0 15 7 12 8
27 4 34 -4 6 -6 22 -4 34 3 30 -37 192 -55 220 -8 13 -14 25 -14 28 1 40 -123
255 -147 255 -7 0 -12 3 -12 8 4 21 -5 34 -55 83 -120 120 -207 187 -330 254
-129 70 -282 119 -411 131 l-61 6 -2 -61z m668 -701 c0 -18 -2 -19 -20 -8 -11
7 -20 16 -20 20 0 5 9 8 20 8 13 0 20 -7 20 -20z m350 -5 c0 -17 -2 -18 -24
-9 -23 9 -20 24 4 24 11 0 20 -7 20 -15z m19 -229 c-3 -3 -11 5 -18 17 -13 21
-12 21 5 5 10 -10 16 -20 13 -22z m-743 -23 c-10 -10 -19 5 -10 18 6 11 8 11
12 0 2 -7 1 -15 -2 -18z"/>
<path d="M902 1794 c-13 -9 -26 -14 -29 -11 -3 3 -37 -6 -77 -20 -210 -75
-304 -186 -308 -366 -2 -72 10 -117 30 -117 15 -1 15 -2 -1 -14 -17 -13 -16
-14 3 -19 11 -3 20 -11 19 -19 0 -10 -2 -10 -6 0 -2 6 -8 12 -13 12 -12 0 24
-129 52 -185 17 -34 31 -50 44 -50 10 0 17 -5 14 -10 -3 -6 -8 -9 -11 -8 -40
13 92 -216 164 -285 l34 -33 6 47 c2 25 22 80 43 121 30 61 35 76 24 83 -12 7
-11 10 5 16 66 23 87 36 92 54 4 14 9 17 21 11 31 -18 94 15 118 61 19 37 55
201 55 254 1 23 -9 60 -21 84 -29 56 -102 127 -143 136 -64 16 -135 -4 -94
-27 9 -6 23 -24 31 -42 7 -18 36 -63 64 -100 29 -37 52 -75 52 -83 0 -8 7 -17
15 -20 8 -4 13 -10 10 -14 -2 -4 2 -28 11 -54 15 -43 15 -48 -1 -73 l-18 -27
-22 27 c-13 14 -26 44 -30 66 -4 23 -11 41 -16 41 -5 0 -17 17 -26 38 -55 119
-173 247 -173 187 0 -9 -6 -18 -14 -21 -16 -6 -31 -35 -17 -31 5 1 10 -2 12
-8 2 -5 19 -31 39 -57 57 -76 113 -196 113 -244 0 -88 -34 -87 -63 2 -32 96
-108 226 -139 239 -11 4 -13 -9 -9 -77 6 -91 29 -161 50 -153 8 3 21 0 30 -7
19 -14 38 -75 20 -64 -6 3 -8 -1 -5 -12 2 -10 -3 -24 -11 -31 -13 -11 -16 -11
-16 1 0 11 -7 14 -24 11 -29 -6 -87 23 -80 40 2 7 -7 50 -21 96 -14 47 -25 93
-25 103 0 10 -4 18 -10 18 -6 0 -6 8 0 23 5 12 18 54 29 93 17 59 30 80 68
118 66 65 140 98 233 104 l76 4 64 -60 c35 -34 66 -60 67 -58 2 2 -4 36 -12
76 -15 73 -47 140 -67 140 -6 0 -8 7 -4 15 3 9 -6 26 -22 41 -55 52 -136 69
-180 38z m48 -88 c0 -3 -4 -8 -10 -11 -5 -3 -10 -1 -10 4 0 6 5 11 10 11 6 0
10 -2 10 -4z m-104 -31 c-11 -8 -25 -15 -30 -15 -6 0 -2 7 8 15 11 8 25 15 30
15 6 0 2 -7 -8 -15z m-182 -25 c14 -5 26 -14 26 -20 0 -16 -18 -12 -40 10 -23
23 -21 24 14 10z m310 -30 c-4 -8 -64 -11 -64 -3 0 3 8 14 17 23 16 14 19 14
34 0 8 -8 15 -17 13 -20z m104 2 c2 -7 -2 -10 -12 -6 -9 3 -16 11 -16 16 0 13
23 5 28 -10z m-330 -83 c13 -21 12 -21 -15 -14 -34 8 -37 11 -28 24 10 17 29
13 43 -10z m-138 -45 c0 -3 -6 -12 -14 -20 -14 -14 -46 -10 -46 6 0 7 10 11
53 19 4 0 7 -2 7 -5z m-21 -143 c8 -5 9 -11 3 -15 -5 -3 -15 1 -22 9 -14 16
-3 20 19 6z m347 -83 c6 3 6 -7 0 -21 -3 -8 -12 -4 -25 12 -27 30 -27 50 0 25
12 -10 23 -18 25 -16z m-356 12 c0 -5 -8 -10 -17 -10 -15 0 -16 2 -3 10 19 12
20 12 20 0z m420 -124 c-13 -13 -35 7 -25 24 5 8 11 8 21 -1 10 -8 12 -15 4
-23z m-317 -206 c3 -11 1 -17 -4 -14 -6 3 -16 1 -23 -5 -11 -9 -12 -6 -8 14 5
30 28 33 35 5z m55 -43 c-7 -12 45 -55 59 -50 12 5 14 1 8 -17 -5 -15 -2 -25
6 -31 10 -6 8 -9 -8 -9 -15 0 -23 7 -25 23 -2 15 -11 23 -29 25 -26 3 -29 12
-20 71 1 2 4 2 7 -1 3 -4 4 -9 2 -11z"/>
<path d="M1880 1310 c-11 -11 -20 -23 -21 -27 -2 -23 -8 -46 -14 -51 -8 -8
-344 -13 -372 -6 -13 4 -20 11 -17 16 14 22 -7 57 -41 68 -34 11 -90 6 -100
-9 -2 -4 -7 -41 -11 -82 -19 -193 3 -365 57 -452 77 -125 163 -165 328 -154
140 10 249 51 281 104 31 53 34 76 44 372 5 119 3 150 -10 178 -30 62 -86 81
-124 43z m-533 -152 c-3 -8 -6 -5 -6 6 -1 11 2 17 5 13 3 -3 4 -12 1 -19z
m514 -91 c1 -7 2 -24 3 -39 3 -29 -3 -35 -19 -19 -6 5 -83 11 -173 14 l-163 4
-19 -25 c-24 -30 -26 -85 -4 -103 9 -8 55 -14 117 -17 201 -9 213 -8 236 12
30 27 33 17 15 -40 -20 -59 -17 -54 -43 -59 -11 -2 -48 -11 -82 -19 -115 -30
-193 -14 -233 46 -23 35 -46 135 -46 200 l0 57 149 3 c189 4 261 -1 262 -15z
m-189 -109 c-7 -7 -12 -8 -12 -2 0 14 12 26 19 19 2 -3 -1 -11 -7 -17z"/>
<path d="M135 1188 c2 -13 7 -41 10 -63 10 -74 47 -206 80 -288 86 -214 229
-387 429 -519 90 -59 109 -67 122 -46 5 7 3 8 -6 3 -9 -5 -11 -4 -6 3 9 14 36
16 36 3 0 -5 -6 -16 -14 -23 -11 -12 -7 -16 29 -29 35 -13 42 -13 38 -2 -3 7
9 0 26 -16 39 -36 96 -56 226 -77 123 -20 179 -24 194 -15 8 5 11 28 9 61 l-3
54 -45 1 c-274 11 -509 124 -761 367 -15 14 -31 23 -35 20 -4 -4 -4 -1 0 5 4
7 -19 56 -53 114 -72 122 -116 240 -139 371 l-17 98 -62 0 c-60 0 -63 -1 -58
-22z m307 -550 c-13 -13 -16 -29 -4 -27 17 3 35 -2 29 -7 -3 -4 -1 -16 5 -28
10 -19 10 -20 -5 -7 -14 11 -17 11 -17 0 0 -11 -2 -11 -9 1 -6 8 -7 18 -5 22
3 4 -2 5 -10 2 -10 -4 -16 -1 -16 7 0 13 28 49 39 49 3 0 0 -5 -7 -12z m343
-318 c3 -5 2 -10 -4 -10 -5 0 -13 5 -16 10 -3 6 -2 10 4 10 5 0 13 -4 16 -10z"/>
<path d="M2369 1195 c-1 -8 -2 -18 -3 -22 -1 -5 -6 -30 -10 -58 -21 -130 -98
-315 -181 -430 -69 -97 -191 -221 -251 -255 -29 -17 -57 -37 -61 -43 -14 -22
-204 -105 -254 -112 -13 -1 -55 -10 -92 -19 -38 -9 -81 -16 -97 -16 -19 0 -30
-6 -34 -17 -8 -30 -1 -108 9 -107 6 1 36 5 69 9 77 8 229 48 289 75 34 15 47
27 48 43 1 18 2 18 6 4 3 -13 10 -16 26 -11 12 4 25 11 28 16 3 5 14 10 23 12
35 5 197 130 280 216 48 49 85 93 84 97 -2 5 1 9 5 10 14 3 105 153 124 202 9
26 21 52 26 59 7 9 6 11 -5 7 -9 -4 -15 0 -15 10 0 10 6 14 15 10 10 -3 12 0
8 10 -3 8 0 14 6 12 5 -1 12 5 14 13 1 8 10 33 18 55 8 22 17 58 20 80 4 22 8
47 11 55 2 8 6 36 10 63 l6 47 -61 0 c-46 0 -60 -3 -61 -15z m-576 -875 c-10
-11 -24 -20 -31 -20 -9 0 -5 8 9 20 31 25 43 25 22 0z"/>
<path d="M1188 1010 c-18 -31 -111 -90 -143 -90 -31 0 -80 -34 -103 -72 -28
-45 -85 -219 -75 -229 17 -16 89 -49 106 -49 24 0 34 30 14 42 -9 4 -14 15
-11 22 5 14 13 13 77 -10 19 -7 23 -24 6 -24 -8 0 -8 -5 1 -15 7 -8 18 -15 26
-15 20 0 84 60 96 89 24 57 19 74 -24 84 -20 5 -28 3 -31 -10 -4 -15 -5 -15
-6 -2 0 9 7 23 17 32 15 14 21 14 42 3 14 -7 24 -18 23 -24 -2 -7 2 -12 8 -12
6 0 9 6 6 14 -3 8 -2 16 3 18 15 5 19 148 5 148 -19 0 -38 27 -25 35 14 9 2
27 -13 18 -7 -3 -5 2 4 13 20 24 30 52 21 58 -4 2 -15 -8 -24 -24z m-128 -316
c0 -2 -7 -4 -15 -4 -8 0 -15 4 -15 10 0 5 7 7 15 4 8 -4 15 -8 15 -10z"/>
<path d="M1018 589 c-23 -13 -23 -29 0 -29 11 0 18 7 18 20 0 11 0 20 -1 20 0
0 -8 -5 -17 -11z"/>
</g>
</svg>
