<?xml version="1.0" encoding="utf-8"?>
<!-- Generator: Adobe Illustrator 22.0.1, SVG Export Plug-In . SVG Version: 6.00 Build 0)  -->
<svg version="1.1" id="圖層_1" xmlns="http://www.w3.org/2000/svg" xmlns:xlink="http://www.w3.org/1999/xlink" x="0px" y="0px"
	 viewBox="0 0 174 100" style="enable-background:new 0 0 174 100;" xml:space="preserve">
<style type="text/css">
	.st0{clip-path:url(#SVGID_2_);}
	.st1{clip-path:url(#SVGID_4_);fill:#231815;}
	.st2{fill:#231815;}
</style>
<g id="向量圖智慧型物件_1_">
	<g>
		<defs>
			<rect id="SVGID_1_" x="11" y="25.1" width="151.4" height="28.9"/>
		</defs>
		<clipPath id="SVGID_2_">
			<use xlink:href="#SVGID_1_"  style="overflow:visible;"/>
		</clipPath>
		<g class="st0">
			<defs>
				<rect id="SVGID_3_" x="11" y="25.1" width="151.4" height="28.9"/>
			</defs>
			<clipPath id="SVGID_4_">
				<use xlink:href="#SVGID_3_"  style="overflow:visible;"/>
			</clipPath>
			<path class="st1" d="M27.3,30.4c0-3,2.4-5.3,5.3-5.3c3,0,5.3,2.4,5.3,5.3c0,2.9-2.4,5.3-5.3,5.3C29.7,35.8,27.3,33.4,27.3,30.4
				 M32.7,53.6c3,0,5.3-2.4,5.3-5.3c0-3-2.4-5.3-5.3-5.3c-3,0-5.3,2.4-5.3,5.3C27.3,51.2,29.7,53.6,32.7,53.6 M25.3,33.3v-8.2
				c-7.9,0-14.3,6.4-14.3,14.3c0,7.9,6.4,14.3,14.3,14.3v-8.2c-3.3,0-6-2.7-6-6C19.2,36,21.9,33.3,25.3,33.3 M74.6,53.6
				c3,0,5.3-2.4,5.3-5.3c0-3-2.4-5.3-5.3-5.3s-5.3,2.4-5.3,5.3C69.2,51.2,71.6,53.6,74.6,53.6 M88.4,25.1c-2.9,0-5.3,2.4-5.3,5.3
				c0,3,2.4,5.3,5.3,5.3c3,0,5.3-2.4,5.3-5.3C93.7,27.5,91.3,25.1,88.4,25.1 M69.8,32c0,6.6,10.9,6.9,10.9,6.9V25.1
				C80.7,25.1,69.8,25.4,69.8,32 M93.7,46.7c0-6.6-10.9-6.9-10.9-6.9v13.8C82.8,53.6,93.7,53.3,93.7,46.7 M53.4,45.4v8.2
				c7.9,0,14.3-6.4,14.3-14.3c0-7.9-6.4-14.3-14.3-14.3v8.2c3.3,0,6,2.7,6,6C59.4,42.7,56.7,45.4,53.4,45.4 M51.3,53.5V25.2
				c-6.9,1-12.2,6.9-12.2,14.1C39.1,46.5,44.4,52.5,51.3,53.5 M142.1,39.3c0-3.3,2.7-6,6-6v-8.2c-7.9,0-14.3,6.4-14.3,14.3
				c0,7.9,6.4,14.3,14.3,14.3v-8.2C144.8,45.4,142.1,42.7,142.1,39.3 M162.4,39.3c0-7.2-5.3-13.1-12.2-14.1v28.2
				C157.1,52.5,162.4,46.5,162.4,39.3 M127.8,54c2.9,0,5.3-2.4,5.3-5.3c0-3-2.4-5.3-5.3-5.3c-3,0-5.3,2.4-5.3,5.3
				C122.4,51.6,124.8,54,127.8,54 M117.1,25.3h-10.5l0,0c0,0,0,0,0,0L94.9,54h10.5l0,0c0,0,0,0,0,0L117.1,25.3z M129.9,25.3h-10.5
				l0,0c0,0,0,0,0,0L107.7,54h10.5l0,0c0,0,0,0,0,0L129.9,25.3z"/>
		</g>
	</g>
</g>
<g>
	<g>
		<path class="st2" d="M13.8,65L13.8,65c0-1.1,0.8-2,1.9-2c0.7,0,1.1,0.2,1.5,0.6L17,63.9c-0.3-0.3-0.7-0.5-1.2-0.5
			c-0.9,0-1.5,0.7-1.5,1.6v0c0,0.9,0.6,1.6,1.5,1.6c0.5,0,0.9-0.2,1.2-0.6l0.3,0.3c-0.4,0.4-0.8,0.7-1.5,0.7
			C14.6,67,13.8,66.1,13.8,65z"/>
		<path class="st2" d="M18,65L18,65c0-1.1,0.8-2,2-2c1.2,0,2,0.9,2,2c0,0,0,0,0,0c0,1.1-0.8,2-2,2S18,66,18,65z M21.4,65L21.4,65
			c0-0.9-0.6-1.6-1.5-1.6s-1.5,0.7-1.5,1.6v0c0,0.9,0.6,1.6,1.5,1.6S21.4,65.9,21.4,65z"/>
		<path class="st2" d="M22.7,66.3L23,66c0.4,0.4,0.8,0.5,1.3,0.5c0.5,0,0.9-0.3,0.9-0.7v0c0-0.4-0.2-0.6-1-0.7
			c-0.9-0.2-1.3-0.5-1.3-1.1v0c0-0.6,0.5-1,1.3-1c0.6,0,1,0.2,1.4,0.5l-0.3,0.3c-0.4-0.3-0.7-0.4-1.1-0.4c-0.5,0-0.8,0.3-0.8,0.6v0
			c0,0.4,0.2,0.6,1,0.7c0.9,0.2,1.3,0.5,1.3,1.1v0c0,0.7-0.5,1.1-1.3,1.1C23.7,66.9,23.2,66.7,22.7,66.3z"/>
		<path class="st2" d="M26.7,63h0.4l1.4,2.1l1.4-2.1h0.4v3.8h-0.4v-3.1l-1.4,2.1h0l-1.4-2.1v3.1h-0.4V63z"/>
		<path class="st2" d="M31.5,65L31.5,65c0-1.1,0.8-2,2-2c1.2,0,2,0.9,2,2c0,0,0,0,0,0c0,1.1-0.8,2-2,2S31.5,66,31.5,65z M35,65
			L35,65c0-0.9-0.6-1.6-1.5-1.6s-1.5,0.7-1.5,1.6v0c0,0.9,0.6,1.6,1.5,1.6S35,65.9,35,65z"/>
		<path class="st2" d="M14,70h1.6c0.4,0,0.8,0.1,1,0.3c0.2,0.2,0.2,0.4,0.2,0.6v0c0,0.5-0.3,0.8-0.6,0.9c0.5,0.1,0.8,0.4,0.8,0.9v0
			c0,0.7-0.6,1-1.4,1H14V70z M15.6,71.8c0.5,0,0.9-0.2,0.9-0.7v0c0-0.4-0.3-0.6-0.9-0.6h-1.2v1.3H15.6z M15.7,73.5
			c0.6,0,0.9-0.3,0.9-0.7v0c0-0.4-0.4-0.7-1-0.7h-1.2v1.4H15.7z"/>
		<path class="st2" d="M18.1,71.1h0.4v0.7c0.2-0.5,0.6-0.8,1.2-0.8v0.5h0c-0.6,0-1.1,0.4-1.1,1.3v1.1h-0.4V71.1z"/>
		<path class="st2" d="M20.2,73.1L20.2,73.1c0-0.6,0.5-0.9,1.2-0.9c0.4,0,0.6,0,0.9,0.1v-0.1c0-0.5-0.3-0.8-0.8-0.8
			c-0.3,0-0.6,0.1-0.9,0.2l-0.1-0.3c0.3-0.1,0.6-0.2,1-0.2c0.4,0,0.7,0.1,0.9,0.3c0.2,0.2,0.3,0.5,0.3,0.8v1.7h-0.4v-0.4
			c-0.2,0.3-0.5,0.5-1,0.5C20.8,74,20.2,73.7,20.2,73.1z M22.3,72.8v-0.3c-0.2-0.1-0.5-0.1-0.8-0.1c-0.5,0-0.8,0.2-0.8,0.6v0
			c0,0.4,0.3,0.6,0.7,0.6C21.9,73.6,22.3,73.3,22.3,72.8z"/>
		<path class="st2" d="M23.8,71.1h0.4v0.5c0.2-0.3,0.5-0.6,1-0.6c0.7,0,1.1,0.5,1.1,1.1v1.8h-0.4v-1.7c0-0.5-0.3-0.9-0.8-0.9
			c-0.5,0-0.9,0.4-0.9,0.9v1.6h-0.4V71.1z"/>
		<path class="st2" d="M27.2,72.5L27.2,72.5c0-0.9,0.7-1.5,1.4-1.5c0.5,0,0.9,0.3,1.1,0.6v-1.7H30v4h-0.4v-0.6
			c-0.2,0.3-0.6,0.6-1.1,0.6C27.9,74,27.2,73.4,27.2,72.5z M29.6,72.5L29.6,72.5c0-0.7-0.5-1.1-1-1.1c-0.5,0-1,0.4-1,1.1v0
			c0,0.7,0.5,1.1,1,1.1C29.1,73.6,29.6,73.1,29.6,72.5z"/>
		<path class="st2" d="M32.7,70h1.4c0.9,0,1.4,0.5,1.4,1.2v0c0,0.8-0.7,1.3-1.5,1.3h-0.9v1.4h-0.4V70z M34.1,72.1
			c0.6,0,1.1-0.3,1.1-0.8v0c0-0.5-0.4-0.8-1-0.8h-1v1.7H34.1z"/>
		<path class="st2" d="M36.5,69.9h0.4v4h-0.4V69.9z"/>
		<path class="st2" d="M37.8,73.1L37.8,73.1c0-0.6,0.5-0.9,1.2-0.9c0.4,0,0.6,0,0.9,0.1v-0.1c0-0.5-0.3-0.8-0.8-0.8
			c-0.3,0-0.6,0.1-0.9,0.2l-0.1-0.3c0.3-0.1,0.6-0.2,1-0.2c0.4,0,0.7,0.1,0.9,0.3c0.2,0.2,0.3,0.5,0.3,0.8v1.7h-0.4v-0.4
			c-0.2,0.3-0.5,0.5-1,0.5C38.3,74,37.8,73.7,37.8,73.1z M39.9,72.8v-0.3c-0.2-0.1-0.5-0.1-0.8-0.1c-0.5,0-0.8,0.2-0.8,0.6v0
			c0,0.4,0.3,0.6,0.7,0.6C39.5,73.6,39.9,73.3,39.9,72.8z"/>
		<path class="st2" d="M41.4,71.1h0.4v0.5c0.2-0.3,0.5-0.6,1-0.6c0.7,0,1.1,0.5,1.1,1.1v1.8h-0.4v-1.7c0-0.5-0.3-0.9-0.8-0.9
			c-0.5,0-0.9,0.4-0.9,0.9v1.6h-0.4V71.1z"/>
		<path class="st2" d="M44.9,71.1h0.4v0.5c0.2-0.3,0.5-0.6,1-0.6c0.7,0,1.1,0.5,1.1,1.1v1.8H47v-1.7c0-0.5-0.3-0.9-0.8-0.9
			c-0.5,0-0.9,0.4-0.9,0.9v1.6h-0.4V71.1z"/>
		<path class="st2" d="M48.5,70h0.5v0.5h-0.5V70z M48.5,71.1h0.4v2.8h-0.4V71.1z"/>
		<path class="st2" d="M50,71.1h0.4v0.5c0.2-0.3,0.5-0.6,1-0.6c0.7,0,1.1,0.5,1.1,1.1v1.8h-0.4v-1.7c0-0.5-0.3-0.9-0.8-0.9
			c-0.5,0-0.9,0.4-0.9,0.9v1.6H50V71.1z"/>
		<path class="st2" d="M53.5,74.4l0.2-0.3c0.3,0.2,0.7,0.4,1.1,0.4c0.6,0,1-0.3,1-1v-0.3c-0.2,0.3-0.6,0.6-1.1,0.6
			c-0.7,0-1.3-0.5-1.3-1.3v0c0-0.8,0.7-1.3,1.3-1.3c0.5,0,0.9,0.3,1.1,0.6v-0.5h0.4v2.3c0,0.4-0.1,0.8-0.4,1
			c-0.3,0.3-0.6,0.4-1.1,0.4C54.3,74.8,53.9,74.7,53.5,74.4z M55.8,72.3L55.8,72.3c0-0.6-0.5-1-1-1c-0.5,0-1,0.4-1,1v0
			c0,0.6,0.5,1,1,1C55.3,73.3,55.8,72.9,55.8,72.3z"/>
		<path class="st2" d="M58.6,73.1L58.6,73.1c0-0.6,0.5-0.9,1.2-0.9c0.4,0,0.6,0,0.9,0.1v-0.1c0-0.5-0.3-0.8-0.8-0.8
			c-0.3,0-0.6,0.1-0.9,0.2l-0.1-0.3c0.3-0.1,0.6-0.2,1-0.2c0.4,0,0.7,0.1,0.9,0.3c0.2,0.2,0.3,0.5,0.3,0.8v1.7h-0.4v-0.4
			c-0.2,0.3-0.5,0.5-1,0.5C59.2,74,58.6,73.7,58.6,73.1z M60.7,72.8v-0.3c-0.2-0.1-0.5-0.1-0.8-0.1c-0.5,0-0.8,0.2-0.8,0.6v0
			c0,0.4,0.3,0.6,0.7,0.6C60.3,73.6,60.7,73.3,60.7,72.8z"/>
		<path class="st2" d="M62.2,71.1h0.4v0.5c0.2-0.3,0.5-0.6,1-0.6c0.7,0,1.1,0.5,1.1,1.1v1.8h-0.4v-1.7c0-0.5-0.3-0.9-0.8-0.9
			c-0.5,0-0.9,0.4-0.9,0.9v1.6h-0.4V71.1z"/>
		<path class="st2" d="M65.6,72.5L65.6,72.5c0-0.9,0.7-1.5,1.4-1.5c0.5,0,0.9,0.3,1.1,0.6v-1.7h0.4v4H68v-0.6
			c-0.2,0.3-0.6,0.6-1.1,0.6C66.3,74,65.6,73.4,65.6,72.5z M68.1,72.5L68.1,72.5c0-0.7-0.5-1.1-1-1.1c-0.5,0-1,0.4-1,1.1v0
			c0,0.7,0.5,1.1,1,1.1C67.6,73.6,68.1,73.1,68.1,72.5z"/>
		<path class="st2" d="M13.7,77h0.5l1.4,3.3l1.4-3.3h0.5l-1.7,3.9h-0.4L13.7,77z"/>
		<path class="st2" d="M18.2,77h0.5v0.5h-0.5V77z M18.2,78.1h0.4v2.8h-0.4V78.1z"/>
		<path class="st2" d="M19.5,80.5l0.2-0.3c0.3,0.2,0.6,0.4,1,0.4c0.3,0,0.6-0.2,0.6-0.5v0c0-0.3-0.3-0.4-0.7-0.5
			c-0.4-0.1-0.9-0.3-0.9-0.8v0c0-0.5,0.4-0.8,1-0.8c0.3,0,0.7,0.1,1,0.3l-0.2,0.3c-0.3-0.2-0.6-0.3-0.8-0.3c-0.3,0-0.5,0.2-0.5,0.4
			v0c0,0.3,0.4,0.4,0.7,0.5c0.4,0.1,0.9,0.3,0.9,0.8v0c0,0.5-0.4,0.9-1,0.9C20.3,80.9,19.8,80.8,19.5,80.5z"/>
		<path class="st2" d="M22.6,79.8v-1.8H23v1.7c0,0.5,0.3,0.9,0.8,0.9c0.5,0,0.9-0.4,0.9-0.9v-1.6h0.4v2.8h-0.4v-0.5
			c-0.2,0.3-0.5,0.6-1,0.6C23,81,22.6,80.5,22.6,79.8z"/>
		<path class="st2" d="M25.9,80.1L25.9,80.1c0-0.6,0.5-0.9,1.2-0.9c0.4,0,0.6,0,0.9,0.1v-0.1c0-0.5-0.3-0.8-0.8-0.8
			c-0.3,0-0.6,0.1-0.9,0.2l-0.1-0.3c0.3-0.1,0.6-0.2,1-0.2c0.4,0,0.7,0.1,0.9,0.3c0.2,0.2,0.3,0.5,0.3,0.8v1.7H28v-0.4
			c-0.2,0.3-0.5,0.5-1,0.5C26.5,81,25.9,80.7,25.9,80.1z M28,79.8v-0.3c-0.2-0.1-0.5-0.1-0.8-0.1c-0.5,0-0.8,0.2-0.8,0.6v0
			c0,0.4,0.3,0.6,0.7,0.6C27.6,80.6,28,80.3,28,79.8z"/>
		<path class="st2" d="M29.5,76.9h0.4v4h-0.4V76.9z"/>
		<path class="st2" d="M32.6,77H34c1.2,0,2,0.8,2,1.9v0c0,1.1-0.8,1.9-2,1.9h-1.3V77z M34,80.5c1,0,1.6-0.7,1.6-1.5v0
			c0-0.9-0.6-1.5-1.6-1.5h-0.9v3H34z"/>
		<path class="st2" d="M38.3,80.6c0.4,0,0.7-0.2,0.9-0.4l0.3,0.2c-0.3,0.3-0.6,0.5-1.2,0.5c-0.8,0-1.4-0.6-1.4-1.5
			c0-0.8,0.6-1.5,1.4-1.5c0.8,0,1.3,0.7,1.3,1.5c0,0,0,0.1,0,0.1h-2.3C37.4,80.2,37.8,80.6,38.3,80.6z M39.1,79.3c0-0.5-0.3-1-0.9-1
			c-0.5,0-0.9,0.4-0.9,1H39.1z"/>
		<path class="st2" d="M40.2,80.5l0.2-0.3c0.3,0.2,0.6,0.4,1,0.4c0.3,0,0.6-0.2,0.6-0.5v0c0-0.3-0.3-0.4-0.7-0.5
			c-0.4-0.1-0.9-0.3-0.9-0.8v0c0-0.5,0.4-0.8,1-0.8c0.3,0,0.7,0.1,1,0.3l-0.2,0.3c-0.3-0.2-0.6-0.3-0.8-0.3c-0.3,0-0.5,0.2-0.5,0.4
			v0c0,0.3,0.4,0.4,0.7,0.5c0.4,0.1,0.9,0.3,0.9,0.8v0c0,0.5-0.4,0.9-1,0.9C41,80.9,40.5,80.8,40.2,80.5z"/>
		<path class="st2" d="M43.3,77h0.5v0.5h-0.5V77z M43.3,78.1h0.4v2.8h-0.4V78.1z"/>
		<path class="st2" d="M44.8,81.4l0.2-0.3c0.3,0.2,0.7,0.4,1.1,0.4c0.6,0,1-0.3,1-1v-0.3c-0.2,0.3-0.6,0.6-1.1,0.6
			c-0.7,0-1.3-0.5-1.3-1.3v0c0-0.8,0.7-1.3,1.3-1.3c0.5,0,0.9,0.3,1.1,0.6v-0.5h0.4v2.3c0,0.4-0.1,0.8-0.4,1
			c-0.3,0.3-0.6,0.4-1.1,0.4C45.6,81.8,45.2,81.7,44.8,81.4z M47.1,79.3L47.1,79.3c0-0.6-0.5-1-1-1c-0.5,0-1,0.4-1,1v0
			c0,0.6,0.5,1,1,1C46.6,80.3,47.1,79.9,47.1,79.3z"/>
		<path class="st2" d="M48.7,78.1h0.4v0.5c0.2-0.3,0.5-0.6,1-0.6c0.7,0,1.1,0.5,1.1,1.1v1.8h-0.4v-1.7c0-0.5-0.3-0.9-0.8-0.9
			c-0.5,0-0.9,0.4-0.9,0.9v1.6h-0.4V78.1z"/>
	</g>
</g>
</svg>
